<svg id="Layer_1" data-name="Layer 1" xmlns="http://www.w3.org/2000/svg" xmlns:xlink="http://www.w3.org/1999/xlink" viewBox="0 0 1919.99 556.97"><defs><style>.cls-1{fill:none;}.cls-2{clip-path:url(#clip-path);}</style><clipPath id="clip-path" transform="translate(-0.01 -261.2)"><rect class="cls-1" y="261.19" width="1920" height="556.97"/></clipPath></defs><g class="cls-2"><g id="Group_1" data-name="Group 1"><path id="Path_1" data-name="Path 1" class="cls-1" d="M880.49,288H4.21A4.31,4.31,0,0,1,0,283.58V265.64a4.33,4.33,0,0,1,4.2-4.44H880.49a4.33,4.33,0,0,1,4.2,4.44v17.92a4.32,4.32,0,0,1-4.2,4.44" transform="translate(-0.01 -261.2)"/><path id="Path_2" data-name="Path 2" class="cls-1" d="M1321.76,796.87,866.36,280.92a4.63,4.63,0,0,1,.21-6.28L879,262.39a4,4,0,0,1,5.71,0l.22.24,455.4,515.94a4.62,4.62,0,0,1-.2,6.28L1327.7,797.1a4.06,4.06,0,0,1-5.73,0l-.21-.23" transform="translate(-0.01 -261.2)"/><path id="Path_3" data-name="Path 3" class="cls-1" d="M1890,798.22H1326.26a4.32,4.32,0,0,1-4.2-4.44V775.85a4.33,4.33,0,0,1,4.2-4.46H1890a4.33,4.33,0,0,1,4.2,4.46h0v17.93a4.32,4.32,0,0,1-4.2,4.44" transform="translate(-0.01 -261.2)"/><path id="Path_4" data-name="Path 4" class="cls-1" d="M1920,784.81c0,18.42-11.54,33.36-25.79,33.36s-25.77-14.93-25.77-33.36,11.55-33.36,25.77-33.36S1920,766.38,1920,784.81" transform="translate(-0.01 -261.2)"/></g></g></svg>